<svg width="2220" height="1923" viewBox="0 0 2220 1923" fill="none" xmlns="http://www.w3.org/2000/svg">
<g style="mix-blend-mode:darken">
<path d="M1278.38 0C1093.89 1297.12 1072.29 1232.54 1505.53 679.776C1072.29 1232.54 1004.41 1226.94 2219.79 738.131C1004.41 1226.94 1049.51 1175.96 1744.73 1274.85C1049.51 1175.96 1020.41 1114.43 2051.3 1922.74C1020.41 1114.43 1087.1 1128.03 1349.09 1779.62C1087.17 1127.98 1060 1242 996 1922.74C1180.49 625.619 1147.5 1136.57 714.261 1689.32C1147.5 1136.57 1215.39 1142.16 0 1630.97C1215.39 1142.16 1170.28 1193.14 475.062 1094.26C1170.28 1193.14 1199.38 1254.67 168.492 446.366C1199.38 1254.67 1132.69 1241.07 870.697 589.481C1132.63 1241.12 1093.89 1297.12 1278.38 0Z" fill="#8CE4C7"/>
</g>
</svg>
