<svg width="640" height="635" viewBox="0 0 640 635" fill="none" xmlns="http://www.w3.org/2000/svg">
<g style="mix-blend-mode:darken">
<path d="M0.615445 232.518L139.875 215.237L69.8648 141.665L160.598 116.99L173.217 6.06975L217.766 84.0545L261.533 0.484405L298.767 125.584L322.375 46.8596L342.042 134.75L416.621 68.1699L382.604 165.667L461.417 122.524L452.491 218.936L511.997 140.866L499.356 254.657L582.739 245.312L553.895 296.228L624.011 309.972L566.927 350.189L639.28 405.338L543.318 428.914L572.503 524.782L504.383 493.07L488.638 634.81L434.603 489.686L360.375 537.046L335.396 440.776L290.488 483.777L307.71 392.967L262.075 431.805L231.52 334.893L184.514 372.688L188.217 301.888L65.7534 312.482L150.122 272.851L0.615445 232.518Z" fill="#8CE4C7"/>
</g>
</svg>
