<svg width="577" height="469" viewBox="0 0 577 469" fill="none" xmlns="http://www.w3.org/2000/svg">
<g style="mix-blend-mode:hard-light">
<path d="M318.964 180.694C439.608 145.949 341.161 92.9827 434.049 26.9649C526.936 -39.0529 599.209 25.8049 556.874 117.401C514.54 208.996 450.625 182.195 404.314 209.648C280.976 282.759 618.576 234.31 572.679 333.614C526.782 432.918 372.305 514.769 388.366 439.871C404.427 364.973 475.784 270.112 411.247 305.785C197.989 423.675 61.6586 422.203 98.4555 352.14C135.252 282.077 177.689 313.322 222.787 255.463C293.139 165.179 80.5497 295.611 33.381 282.553C-13.7877 269.496 -31.0625 191.759 120.338 134.127C271.716 76.5133 198.343 215.422 318.976 180.669L318.964 180.694Z" fill="#00583B"/>
</g>
</svg>
